<svg version="1.2" xmlns="http://www.w3.org/2000/svg" viewBox="0 0 1629 400" width="1629" height="400"><path fill="#FFF" fill-rule="evenodd" d="m200 400c-148.2 0-200-51.8-200-200 0-148.2 51.8-200 200-200 148.2 0 200 51.8 200 200 0 148.2-51.8 200-200 200zm-107.7-261.5h215.4v-30.8h-215.4zm0 76.9h153.9v-30.8h-153.9zm0 77h184.6v-30.8h-184.6z"/><path fill="#FFF" d="m563.5 279.8c-10.3 0-20.1-1.1-27.4-3.4-6.8-2.3-8-5.3-8-12.5v-23.2l-38.7 2.6v60.1c22.8 10.6 46.3 15.5 76.8 15.5 52.4 0 92-27.3 92-77.5 0-49-36.5-64.5-71.1-75.5-28.5-8.8-50.6-15.2-50.6-38.8 0-23.5 17.5-32.7 39.9-32.7 7.6 0 17.5 0.8 24.7 3.1 6.9 2.3 8 5.3 8 12.5v22l38.8-2.6v-57c-22.8-10.6-46.4-15.6-71.5-15.6-52.4 0-88.2 28.1-88.2 74.5 0 48.6 35 63.8 72.6 74.1 26.6 7.2 48.3 14 48.3 37.9 0 28.5-20.5 36.5-45.6 36.5zm287-149.3c-27.4-10.2-55.1-13.3-67.7-13.3-68.4 0-100.3 42.6-100.3 109.4 0 54.4 22.4 92.3 76 92.3 20.9 0 40.3-10.2 52.1-27.3l1.1 0.4v22h60.5v-30.4l-12.2-0.7c-7.2-0.4-9.5-2.7-9.5-11.1zm-44.1 123.1c0 16.3-14.4 33.1-38 33.1-31.9 0-39.5-30-39.5-61.6 0-41 12.1-74.8 48.2-74.8 11.8 0 23.6 2.3 29.3 4.9zm152.4-130.6h-68v31.5l13.3 0.7c7.2 0.4 9.5 2.7 9.5 11.1v158.7c0 25.1-8 33.5-22.4 33.5-9.9 0-19-3.1-28.2-8l-13.6 31.5c13.3 8.4 33 13.3 48.6 13.3 54 0 60.8-35.7 60.8-72.2zm-55.8-52.8c0 16 11.4 27.8 28.8 27.8 17.2 0 29.3-11.8 29.3-27.8 0-15.9-12.1-28.4-28.9-28.4-17.8 0-29.2 12.5-29.2 28.4zm287.7 213.9l-13.3-1.1c-7.2-0.8-9.5-2.7-9.5-11v-149h-66.9v31.2l12.2 0.8c7.2 0.3 9.5 3 9.5 11.3v80.2c0 19.8-14.1 37.6-40.7 37.6-24.3 0-28.1-17.5-28.1-40.6v-120.5h-66.9v31.2l12.1 0.8c6.5 0.3 9.5 2.6 9.5 10.6v87.7c0 44.9 20.9 65.8 59 65.8 25 0 48.2-10.7 61.5-29.7v24.7h61.6zm17.9-130.7l15.9 1.2c6.9 0.4 9.5 3.4 9.5 11.8v105.2c0 9.5-3.8 11.8-11 12.5l-12.5 1.2v28.8h90.5v-30.4l-21.7-1.1v-91.9c0-19.8 14-38.4 39.1-38.4 25.9 0 31.2 16 31.2 41v78.3c0 9.5-3.8 11.8-11 12.5l-12.6 1.2v28.8h90.5v-30.4l-21.7-1.1v-99.1c0-44.9-22.4-66.1-60.4-66.1-25.1 0-48.3 11.3-61.6 30.3v-24.6h-64.2zm398-22.8c-27.4-10.3-55.1-13.3-67.7-13.3-68.4 0-100.3 42.5-100.3 109.4 0 54.3 22.4 92.3 76 92.3 20.9 0 40.3-10.3 52.1-27.4l1.1 0.4v22h60.4v-30.4l-12.1-0.7c-7.2-0.4-9.5-2.7-9.5-11zm-44.1 123c0 16.4-14.5 33.1-38 33.1-32 0-39.6-30-39.6-61.5 0-41.1 12.2-74.9 48.3-74.9 11.8 0 23.6 2.3 29.3 5z"/></svg>